<svg width="120" height="109" viewBox="0 0 120 109" fill="none" xmlns="http://www.w3.org/2000/svg">
<rect x="6.99997" y="4.48" width="100" height="100" rx="50" fill="#347670"/>
<path d="M101.58 84.1187C99.5103 84.6682 97.5451 84.8107 95.6842 84.546C93.8516 84.2738 92.2765 83.5994 90.9588 82.5229C89.641 81.4463 88.7271 80.0046 88.217 78.1976L94.596 76.5039C95.0047 77.7005 95.6859 78.5515 96.6396 79.057C97.6216 79.555 98.793 79.6234 100.154 79.262C101.543 78.8932 102.548 78.2774 103.169 77.4145C103.782 76.5233 103.945 75.539 103.659 74.4617C103.426 73.5828 102.965 72.9314 102.276 72.5074C101.586 72.0834 100.789 71.8246 99.8843 71.731C99.0001 71.6016 97.7966 71.5266 96.2736 71.5061C94.1952 71.4509 92.4749 71.3158 91.1128 71.1009C89.7715 70.85 88.5146 70.2884 87.3422 69.416C86.1906 68.5078 85.3663 67.1181 84.8695 65.247C84.4028 63.4892 84.4358 61.8416 84.9684 60.3041C85.501 58.7666 86.4708 57.4468 87.8778 56.3449C89.2773 55.2146 90.9977 54.3784 93.039 53.8364C96.1009 53.0235 98.7811 53.1161 101.08 54.1144C103.399 55.0768 105.012 56.8641 105.918 59.4764L99.3685 61.2153C99.0408 60.2097 98.3793 59.49 97.3839 59.0562C96.4095 58.5866 95.256 58.5286 93.9235 58.8824C92.7611 59.1911 91.9045 59.7371 91.3538 60.5207C90.8315 61.2967 90.7209 62.2518 91.022 63.3858C91.2327 64.1796 91.6648 64.7781 92.3181 65.1813C92.9923 65.5486 93.7573 65.8008 94.6131 65.9377C95.4897 66.0388 96.6933 66.1138 98.2237 66.1627C100.302 66.2179 102.026 66.3671 103.396 66.6104C104.765 66.8538 106.04 67.4258 107.22 68.3265C108.4 69.2272 109.235 70.5989 109.724 72.4417C110.146 74.0294 110.126 75.6128 109.665 77.192C109.204 78.7711 108.289 80.1825 106.92 81.4262C105.543 82.6416 103.763 83.5391 101.58 84.1187Z" fill="#FFA500"/>
<path d="M63.7492 90.2241C60.8755 90.1488 58.254 89.4053 55.8849 87.9935C53.5157 86.5816 51.6584 84.6697 50.3131 82.2576C48.9685 79.8163 48.3358 77.0854 48.4149 74.0652C48.4932 71.0742 49.2672 68.4095 50.737 66.0712C52.2074 63.7035 54.1626 61.8768 56.6024 60.5909C59.0423 59.305 61.699 58.6996 64.5727 58.7749C67.4757 58.8509 70.0971 59.5944 72.437 61.0055C74.8062 62.4173 76.6484 64.3436 77.9636 66.7842C79.3089 69.1962 79.9424 71.8977 79.8641 74.8887C79.785 77.909 79.0102 80.603 77.5398 82.9706C76.0994 85.3097 74.1593 87.1222 71.7194 88.4081C69.2796 89.694 66.6228 90.2993 63.7492 90.2241ZM63.8931 84.726C65.7405 84.7744 67.3787 84.4064 68.8077 83.6222C70.2375 82.8087 71.3686 81.6353 72.201 80.1019C73.0335 78.5685 73.4765 76.7755 73.5303 74.7228C73.584 72.6702 73.235 70.8711 72.4832 69.3256C71.7322 67.7507 70.6637 66.5343 69.2776 65.6764C67.8916 64.8185 66.2749 64.3653 64.4276 64.317C62.5802 64.2686 60.9273 64.6361 59.469 65.4196C58.04 66.2037 56.9093 67.3625 56.0768 68.8959C55.2452 70.4 54.8025 72.1784 54.7487 74.231C54.695 76.2836 55.0436 78.0974 55.7947 79.6723C56.5457 81.2471 57.6138 82.4782 58.9991 83.3654C60.4144 84.2241 62.0458 84.6776 63.8931 84.726Z" fill="white"/>
<path d="M43.6761 57.7767L38.8821 88.1123L32.7976 87.1507L35.9158 67.4196L24.6704 85.8663L20.0636 85.1383L15.0112 64.1159L11.893 83.8471L5.80852 82.8855L10.6026 52.55L17.5128 53.642L23.5964 77.7229L36.8093 56.6915L43.6761 57.7767Z" fill="#FFA500"/>
<path d="M66.1698 18.773L67.4957 37.7347C67.641 39.8123 68.2938 41.3692 69.4543 42.4054C70.6127 43.4124 72.1722 43.8474 74.1327 43.7103C76.1225 43.5711 77.6209 42.9224 78.6279 41.764C79.6328 40.5763 80.0626 38.9437 79.9174 36.8661L78.5914 17.9044L84.7803 17.4716L86.1032 36.3894C86.2853 38.9937 85.8692 41.2429 84.8548 43.1369C83.8677 44.9997 82.4548 46.4511 80.6162 47.4912C78.8069 48.5293 76.7464 49.1292 74.4347 49.2908C72.1523 49.4504 70.043 49.1421 68.1068 48.366C66.1999 47.5878 64.6426 46.344 63.4351 44.6348C62.2256 42.8962 61.5297 40.7248 61.3476 38.1205L60.0248 19.2027L66.1698 18.773Z" fill="#A06B9A"/>
<path d="M50.9027 19.2268L50.5867 24.1888L42.4193 23.6687L40.7835 49.3566L34.636 48.9652L36.2717 23.2772L28.1043 22.7571L28.4202 17.7952L50.9027 19.2268Z" fill="white"/>
</svg>
