<svg width="395" height="150" viewBox="0 0 395 150" fill="none" xmlns="http://www.w3.org/2000/svg">
<rect x="140" y="25" width="100" height="100" rx="50" fill="#A06B9A"/>
<rect y="25" width="60" height="60" rx="30" fill="#A06B9A"/>
<rect x="318" y="43" width="77" height="77" rx="38.5" fill="#A06B9A"/>
<path d="M54.507 39.1498L55.1693 49.9776L37.3466 51.0676L40.775 107.123L27.3601 107.943L23.9316 51.8881L6.10893 52.9782L5.44668 42.1504L54.507 39.1498Z" fill="white"/>
<path d="M88.2112 39.6618L86.7638 81.1085C86.6052 85.6497 87.6668 89.1769 89.9485 91.6901C92.2324 94.1393 95.517 95.4387 99.8024 95.5884C104.152 95.7403 107.551 94.6742 110 92.3903C112.452 90.0424 113.757 86.5979 113.915 82.0567L115.363 40.6099L128.89 41.0823L127.446 82.4331C127.248 88.1256 125.832 92.9111 123.199 96.7896C120.632 100.606 117.235 103.434 113.009 105.271C108.846 107.111 104.238 107.943 99.185 107.766C94.1961 107.592 89.6895 106.442 85.6652 104.316C81.7049 102.193 78.6096 99.1389 76.3793 95.1546C74.1512 91.1064 73.1366 86.236 73.3353 80.5435L74.7793 39.1927L88.2112 39.6618Z" fill="white"/>
<path d="M218.283 39.3217L221.79 106.238L208.368 106.941L206.087 63.4169L190.441 107.881L180.279 108.413L159.974 65.8336L162.255 109.358L148.834 110.061L145.327 43.1451L160.57 42.3463L184.46 90.9866L203.136 40.1155L218.283 39.3217Z" fill="white"/>
<path d="M269.781 107.623C263.511 107.459 257.791 105.837 252.622 102.756C247.453 99.6759 243.401 95.5044 240.466 90.2417C237.532 84.9151 236.151 78.9569 236.324 72.3672C236.495 65.8414 238.184 60.0276 241.39 54.9258C244.599 49.76 248.864 45.7743 254.188 42.9687C259.511 40.1631 265.308 38.8424 271.577 39.0066C277.911 39.1724 283.631 40.7947 288.736 43.8734C293.905 46.9538 297.924 51.1564 300.794 56.4814C303.729 61.744 305.111 67.6382 304.941 74.164C304.768 80.7537 303.078 86.6315 299.869 91.7973C296.727 96.9007 292.494 100.855 287.17 103.661C281.847 106.467 276.05 107.787 269.781 107.623ZM270.095 95.6272C274.125 95.7327 277.7 94.93 280.817 93.219C283.937 91.4441 286.405 88.8838 288.221 85.5382C290.037 82.1926 291.004 78.2806 291.121 73.8021C291.239 69.3236 290.477 65.3983 288.837 62.0263C287.198 58.5902 284.867 55.9362 281.843 54.0644C278.819 52.1926 275.291 51.204 271.261 51.0984C267.23 50.9929 263.624 51.7948 260.442 53.504C257.324 55.215 254.857 57.7433 253.041 61.0889C251.226 64.3705 250.261 68.2506 250.143 72.729C250.026 77.2075 250.787 81.1648 252.425 84.6009C254.064 88.0369 256.394 90.7228 259.417 92.6586C262.505 94.5321 266.064 95.5216 270.095 95.6272Z" fill="white"/>
<path d="M351.579 109.144C346.933 109.632 342.648 109.278 338.726 108.082C334.867 106.879 331.698 104.895 329.22 102.131C326.741 99.3668 325.256 95.9513 324.764 91.8844L339.085 90.3792C339.564 93.0961 340.746 95.1598 342.632 96.5704C344.581 97.9743 347.083 98.5157 350.139 98.1946C353.257 97.8668 355.631 96.8773 357.259 95.2261C358.881 93.5112 359.565 91.4444 359.31 89.0257C359.103 87.0526 358.328 85.493 356.985 84.3472C355.642 83.2013 354.01 82.3753 352.091 81.8691C350.228 81.2927 347.659 80.7261 344.383 80.1695C339.921 79.3514 336.258 78.4816 333.394 77.5599C330.587 76.5679 328.066 74.9344 325.832 72.6594C323.655 70.3142 322.346 67.0411 321.904 62.8402C321.49 58.894 322.115 55.3532 323.78 52.218C325.446 49.0827 327.98 46.564 331.384 44.6617C334.781 42.6959 338.771 41.4721 343.354 40.9904C350.228 40.2679 355.975 41.3693 360.594 44.2945C365.27 47.1494 368.145 51.5449 369.219 57.4811L354.516 59.0265C354.148 56.7485 352.964 54.9745 350.965 53.7046C349.022 52.3643 346.555 51.8514 343.563 52.1658C340.954 52.4401 338.924 53.3292 337.473 54.833C336.086 56.3302 335.526 58.3518 335.793 60.8978C335.981 62.68 336.711 64.1155 337.984 65.2044C339.313 66.223 340.878 67.0239 342.677 67.6071C344.532 68.1199 347.102 68.6864 350.384 69.3067C354.846 70.1248 358.513 71.0265 361.383 72.0118C364.254 72.9971 366.81 74.6591 369.051 76.9977C371.291 79.3363 372.629 82.5742 373.064 86.7114C373.439 90.2757 372.864 93.6825 371.339 96.9317C369.814 100.181 367.367 102.916 363.996 105.136C360.619 107.293 356.48 108.629 351.579 109.144Z" fill="white"/>
</svg>
